<svg xmlns="http://www.w3.org/2000/svg"  viewBox="0 0 48 48" width="48px" height="48px"><rect width="2" height="6" x="23" y="4" fill="#fdd835"/><rect width="2" height="6" x="23" y="15" fill="#fdd835"/><rect width="2" height="6" x="23" y="26" fill="#fdd835"/><rect width="2" height="6" x="23" y="38" fill="#fdd835"/><g><path fill="#f44336" d="M19,18c0,0,0,3.72-0.08,7.79c-0.08,4.06-0.23,8.47-0.54,9.85c-0.3,0.76-0.94,1.34-1.73,1.57 c-1.2,0.34-2.42,0.57-3.65,0.69c-0.66,0.07-1.33,0.1-2,0.1s-1.34-0.03-2-0.1c-1.23-0.12-2.45-0.35-3.65-0.69 c-0.79-0.23-1.43-0.81-1.73-1.57C3,33.87,3,18,3,18l0.11-5.81c0-1.41,0.18-2.81,0.52-4.18C3.72,7.65,3.85,7.31,4.04,7 C4.45,6.26,5.11,5.67,5.9,5.33L7,4.85L7.12,4.8C7.73,4.54,8.36,4.34,9,4.21c1.32-0.28,2.68-0.28,4,0c0.64,0.13,1.27,0.33,1.88,0.59 L15,4.85l1.1,0.48c0.79,0.34,1.45,0.93,1.86,1.67c0.19,0.31,0.32,0.65,0.41,1.01c0.34,1.37,0.52,2.77,0.52,4.18L19,18z"/><path fill="#607d8b" d="M13,4.21V37.9c-0.66,0.07-1.33,0.1-2,0.1s-1.34-0.03-2-0.1V4.21C10.32,3.93,11.68,3.93,13,4.21z"/><path fill="#e3f2fd" d="M14.275,35.68c-2.183,0.426-4.366,0.426-6.55,0c-0.432-0.084-0.736-0.406-0.751-0.767l-0.193-4.484 C6.906,29.612,7.757,29,8.766,29h4.469c1.009,0,1.859,0.612,1.985,1.428l-0.193,4.484C15.011,35.274,14.706,35.596,14.275,35.68z"/><path fill="#e3f2fd" d="M5.334,15.926l1.342,3.431c0.186,0.475,0.686,0.736,1.171,0.612l0,0c2.07-0.529,4.236-0.529,6.306,0 l0,0c0.485,0.124,0.985-0.137,1.171-0.612l1.342-3.431c0.212-0.542,0.187-1.152-0.068-1.674l-0.139-0.285 c-0.296-0.605-0.798-1.078-1.412-1.329l-0.333-0.136c-2.384-0.975-5.044-0.975-7.428,0l-0.333,0.136 c-0.614,0.251-1.116,0.724-1.412,1.329l-0.139,0.285C5.146,14.774,5.121,15.383,5.334,15.926z"/><path fill="#e3f2fd" d="M4,17l1.285,2.982C5.757,21.079,6,22.25,6,23.431v1.711c0,0.759-0.1,1.516-0.299,2.252L5,30 l-0.487-1.356C4.173,27.697,4,26.705,4,25.707V17z"/><path fill="#e3f2fd" d="M18,17l-1.285,2.982C16.243,21.079,16,22.25,16,23.431v1.711c0,0.759,0.1,1.516,0.299,2.252L17,30 l0.487-1.356C17.827,27.697,18,26.705,18,25.707V17z"/><path fill="#fdd835" d="M7,4.85V5.5C7,6.33,6.33,7,5.5,7H4.04C4.45,6.26,5.11,5.67,5.9,5.33L7,4.85z"/><path fill="#fdd835" d="M17.96,7H16.5C15.67,7,15,6.33,15,5.5V4.85l1.1,0.48C16.89,5.67,17.55,6.26,17.96,7z"/></g><g><path fill="#607d8b" d="M45,24c0,0,0,3.72-0.08,7.79c-0.08,4.06-0.23,8.47-0.54,9.85c-0.3,0.76-0.94,1.34-1.73,1.57 c-1.2,0.34-2.42,0.57-3.65,0.69c-0.66,0.07-1.33,0.1-2,0.1s-1.34-0.03-2-0.1c-1.23-0.12-2.45-0.35-3.65-0.69 c-0.79-0.23-1.43-0.81-1.73-1.57C29,39.87,29,24,29,24l0.11-5.81c0-1.41,0.18-2.81,0.52-4.18c0.09-0.36,0.22-0.7,0.41-1.01 c0.41-0.74,1.07-1.33,1.86-1.67l1.1-0.48l0.12-0.05c0.61-0.26,1.24-0.46,1.88-0.59c1.32-0.28,2.68-0.28,4,0 c0.64,0.13,1.27,0.33,1.88,0.59L41,10.85l1.1,0.48c0.79,0.34,1.45,0.93,1.86,1.67c0.19,0.31,0.32,0.65,0.41,1.01 c0.34,1.37,0.52,2.77,0.52,4.18L45,24z"/><path fill="#f44336" d="M39,10.21V43.9c-0.66,0.07-1.33,0.1-2,0.1s-1.34-0.03-2-0.1V10.21C36.32,9.93,37.68,9.93,39,10.21z"/><path fill="#e3f2fd" d="M40.275,41.68c-2.183,0.426-4.366,0.426-6.55,0c-0.432-0.084-0.736-0.406-0.751-0.767l-0.193-4.484 C32.906,35.612,33.757,35,34.766,35h4.469c1.009,0,1.859,0.612,1.985,1.428l-0.193,4.484C41.011,41.274,40.706,41.596,40.275,41.68 z"/><path fill="#e3f2fd" d="M31.334,21.926l1.342,3.431c0.186,0.475,0.686,0.736,1.171,0.612l0,0 c2.07-0.529,4.236-0.529,6.306,0l0,0c0.485,0.124,0.985-0.137,1.171-0.612l1.342-3.431c0.212-0.542,0.187-1.152-0.068-1.674 l-0.139-0.285c-0.296-0.605-0.798-1.078-1.412-1.329l-0.333-0.136c-2.384-0.975-5.044-0.975-7.428,0l-0.333,0.136 c-0.614,0.251-1.116,0.724-1.412,1.329l-0.139,0.285C31.146,20.774,31.121,21.383,31.334,21.926z"/><path fill="#e3f2fd" d="M30,23l1.285,2.982C31.757,27.079,32,28.25,32,29.431v1.711c0,0.759-0.1,1.516-0.299,2.252L31,36 l-0.487-1.356C30.173,33.697,30,32.705,30,31.707V23z"/><path fill="#e3f2fd" d="M44,23l-1.285,2.982C42.243,27.079,42,28.25,42,29.431v1.711c0,0.759,0.1,1.516,0.299,2.252L43,36 l0.487-1.356C43.827,33.697,44,32.705,44,31.707V23z"/><path fill="#fdd835" d="M33,10.85v0.65c0,0.83-0.67,1.5-1.5,1.5h-1.46c0.41-0.74,1.07-1.33,1.86-1.67L33,10.85z"/><path fill="#fdd835" d="M43.96,13H42.5c-0.83,0-1.5-0.67-1.5-1.5v-0.65l1.1,0.48C42.89,11.67,43.55,12.26,43.96,13z"/></g></svg>